<svg xmlns="http://www.w3.org/2000/svg" width="40" height="40" viewBox="0 0 24 24"><path fill="#888" d="M12 2C6.48 2 2 6.59 2 12.25c0 4.53 2.87 8.37 6.84 9.73.5.09.68-.22.68-.49 0-.24-.01-.89-.01-1.74-2.78.62-3.37-1.37-3.37-1.37-.45-1.18-1.11-1.5-1.11-1.5-.91-.64.07-.62.07-.62 1 .07 1.53 1.06 1.53 1.06.89 1.57 2.34 1.11 2.91.85.09-.66.35-1.11.63-1.37-2.22-.26-4.56-1.14-4.56-5.07 0-1.12.39-2.03 1.03-2.75-.1-.26-.45-1.3.1-2.71 0 0 .84-.28 2.75 1.05.8-.23 1.65-.34 2.5-.34.85 0 1.7.12 2.5.34 1.91-1.33 2.75-1.05 2.75-1.05.55 1.41.2 2.45.1 2.71.64.72 1.03 1.63 1.03 2.75 0 3.94-2.34 4.81-4.57 5.06.36.32.68.94.68 1.9 0 1.37-.01 2.48-.01 2.81 0 .27.18.59.69.49 3.97-1.36 6.83-5.2 6.83-9.73C22 6.59 17.52 2 12 2"/></svg>
