<svg xmlns="http://www.w3.org/2000/svg" width="17" height="18" fill="none">
  <path fill="#000"
    d="M16.687 14.11 11.59 6.305a2.715 2.715 0 0 1-.476-1.501V1.638h.408c.34 0 .611-.262.611-.588 0-.294-.272-.555-.611-.555h-6.05a.561.561 0 0 0-.577.555c0 .327.238.588.578.588h.408v3.167c0 .522-.17 1.044-.442 1.501L.308 14.11c-.884 1.502.237 3.396 2.072 3.396h12.268c1.801 0 2.957-1.894 2.04-3.396ZM5.813 12.541c-1.02.294-3.025-.032-2.38-1.012l2.991-4.603c.408-.653.646-1.372.646-2.122V1.638h2.888v3.167c0 .75.204 1.469.612 2.122l1.733 2.677c.306.457-.17.685-.544.718-2.718.196-3.704 1.6-5.947 2.22Z" />
</svg>
