<svg width="17" height="24" viewBox="0 0 17 24" fill="none" xmlns="http://www.w3.org/2000/svg">
  <path
    d="M17.0001 6.7389C17.0001 3.01692 14.0833 0 10.4848 0H0.699625C0.392139 0 0.143311 0.257371 0.143311 0.574774V11.811C0.143311 11.8748 0.147633 11.9374 0.154424 12C0.147633 12.0619 0.143311 12.1245 0.143311 12.189V23.4252C0.143311 23.7426 0.392139 24 0.699007 24H10.4848C14.0833 24 17.0001 20.9831 17.0001 17.2611C17.0001 15.4736 16.3264 13.8501 15.2286 12.6437C14.8983 12.281 14.8983 11.7184 15.2286 11.355C16.3264 10.1492 17.0001 8.52517 17.0001 6.73827V6.7389Z"
    fill="#595959" />
  <path
    d="M9.15294 6.85742C7.98228 6.85742 6.98017 7.61229 6.57513 8.67626H6.27505C4.99139 8.67626 3.94668 9.75684 3.94668 11.0846V13.6334C3.94668 13.8077 3.80961 13.9495 3.64105 13.9495H0V16.0417H3.64105C4.92471 16.0417 5.96942 14.9611 5.96942 13.6334V11.0846C5.96942 10.9102 6.10649 10.7684 6.27505 10.7684H6.57513C6.98017 11.8318 7.98228 12.5873 9.15294 12.5873C10.6805 12.5873 11.9228 11.3023 11.9228 9.72235C11.9228 8.14236 10.6805 6.85742 9.15294 6.85742ZM9.15294 10.4951C8.74111 10.4951 8.40584 10.1483 8.40584 9.72235C8.40584 9.29638 8.74111 8.9496 9.15294 8.9496C9.56478 8.9496 9.90005 9.29638 9.90005 9.72235C9.90005 10.1483 9.56478 10.4951 9.15294 10.4951Z"
    fill="white" />
</svg>
