<svg xmlns="http://www.w3.org/2000/svg" width="16" height="16" fill="none">
  <path fill="#1A1A1A"
    d="M1.75 15.583A1.317 1.317 0 0 1 .417 14.25V3.75A1.317 1.317 0 0 1 1.75 2.417H8V3.5H1.75c-.056 0-.111.028-.167.083-.055.056-.083.111-.083.167v10.5c0 .056.028.111.083.167.056.055.111.083.167.083h10.5c.056 0 .111-.028.167-.083.055-.056.083-.111.083-.167V8h1.083v6.25c0 .361-.132.674-.396.938-.25.263-.562.395-.937.395H1.75Zm1.375-2.791 1.813-2.417 1.291 1.646 2.104-2.709 2.604 3.48H3.125Zm8.375-4c0-1.195-.417-2.209-1.25-3.042-.833-.833-1.847-1.25-3.042-1.25 1.195 0 2.209-.417 3.042-1.25.833-.833 1.25-1.847 1.25-3.042 0 1.195.417 2.209 1.25 3.042.833.833 1.847 1.25 3.042 1.25-1.195 0-2.209.417-3.042 1.25-.833.833-1.25 1.847-1.25 3.042Z" />
</svg>
