<svg xmlns="http://www.w3.org/2000/svg" width="20" height="20" fill="none">
  <path fill="#fff"
    d="M8.23 17.583V4.417h1.082v13.166H8.23Zm3.25-2.833v-7.5h1.082v7.5H11.48Zm-6.5-2v-3.5h1.082v3.5H4.98Zm9.75-.5v-2.5h1.082v2.5H14.73Zm.54-4.23c0-.902-.326-1.673-.978-2.312-.64-.652-1.41-.979-2.313-.979.903 0 1.674-.32 2.313-.958a3.21 3.21 0 0 0 .979-2.354c0 .916.32 1.701.958 2.354a3.245 3.245 0 0 0 2.354.958 3.21 3.21 0 0 0-2.354.98 3.151 3.151 0 0 0-.958 2.312ZM1.626 11.543v-1.084h1.083v1.084H1.625Z" />
</svg>
