<svg xmlns="http://www.w3.org/2000/svg" width="20" height="20" fill="none">
  <g clip-path="url(#a)">
    <path fill="#fff"
      d="M6.125 13.792h4.417l1.937-1.938-1.146-1.541L9.23 13.02l-1.291-1.646-1.813 2.417ZM4.75 16.583a1.317 1.317 0 0 1-1.333-1.333V8.77H4.5v6.48c0 .056.028.111.083.167.056.055.111.083.167.083h5.688v1.083H4.75ZM15.5 8.438V4.75c0-.056-.028-.111-.083-.167-.056-.055-.111-.083-.167-.083H8.77V3.417h6.48c.375 0 .688.132.938.396.263.263.395.576.395.937v3.688H15.5Zm-3.396 8.145v-2l4.292-4.27a.5.5 0 0 1 .25-.167.993.993 0 0 1 .27-.042c.098 0 .188.021.271.063.098.027.181.076.25.146l.917.937a.626.626 0 0 1 .167.27.555.555 0 0 1 .062.25c0 .098-.02.195-.062.293a.655.655 0 0 1-.167.25l-4.27 4.27h-1.98Zm5.73-4.791-.938-.959.937.959Zm-5 4.041h.937l2.583-2.562-.916-.959-2.605 2.584v.937Zm3.062-3.041-.459-.48.917.959-.458-.48ZM4.542 7.875c0-.93-.327-1.715-.98-2.354-.638-.653-1.423-.98-2.354-.98.93 0 1.716-.319 2.354-.958.653-.652.98-1.444.98-2.375 0 .93.32 1.723.958 2.375.653.64 1.444.959 2.375.959-.93 0-1.722.326-2.375.979-.639.639-.958 1.423-.958 2.354Z" />
  </g>
  <defs>
    <clipPath id="a">
      <path fill="#fff" d="M0 0h20v20H0z" />
    </clipPath>
  </defs>
</svg>
