<svg xmlns="http://www.w3.org/2000/svg" width="39" height="39" fill="none">
  <path fill="#1A1A1A"
    d="M2.9 39c-.8 0-1.483-.283-2.05-.85A2.794 2.794 0 0 1 0 36.1V7.9c0-.8.283-1.483.85-2.05A2.794 2.794 0 0 1 2.9 5h16.85v2.25H2.9a.622.622 0 0 0-.45.2.622.622 0 0 0-.2.45v28.2c0 .167.067.317.2.45s.283.2.45.2h28.2a.622.622 0 0 0 .45-.2.622.622 0 0 0 .2-.45V19.25H34V36.1c0 .8-.283 1.483-.85 2.05-.567.567-1.25.85-2.05.85H2.9Zm3.45-7.4 4.85-6.3 4.1 5.4 6.05-7.7 6.5 8.6H6.35ZM28 21.15c0-2.833-.983-5.233-2.95-7.2-1.967-1.967-4.367-2.95-7.2-2.95 2.833 0 5.233-.983 7.2-2.95C27.017 6.083 28 3.683 28 .85c0 2.833.983 5.233 2.95 7.2 1.967 1.967 4.367 2.95 7.2 2.95-2.833 0-5.233.983-7.2 2.95-1.967 1.967-2.95 4.367-2.95 7.2Z" />
</svg>
