<svg width="48" height="48" viewBox="0 0 16 16" fill="none" xmlns="http://www.w3.org/2000/svg">
  <path
    d="M8 15.5833C7.97222 15.5833 7.95833 15.5694 7.95833 15.5417C7.95833 14.5 7.76389 13.5278 7.375 12.625C6.98611 11.7083 6.44444 10.9097 5.75 10.2292C5.06944 9.54861 4.27083 9.01389 3.35417 8.625C2.45139 8.23611 1.48611 8.04167 0.458334 8.04167C0.430556 8.04167 0.416667 8.02778 0.416667 8C0.416667 7.97222 0.430556 7.95833 0.458334 7.95833C1.5 7.95833 2.47222 7.76389 3.375 7.375C4.29167 6.98611 5.09028 6.44444 5.77083 5.75C6.45139 5.06944 6.98611 4.27778 7.375 3.375C7.76389 2.47222 7.95833 1.5 7.95833 0.458333C7.95833 0.430555 7.97222 0.416666 8 0.416666C8.02778 0.416666 8.04167 0.430555 8.04167 0.458333C8.04167 1.5 8.23611 2.47917 8.625 3.39583C9.01389 4.29861 9.54861 5.09028 10.2292 5.77083C10.9236 6.45139 11.7222 6.98611 12.625 7.375C13.5278 7.76389 14.5 7.95833 15.5417 7.95833C15.5694 7.95833 15.5833 7.97222 15.5833 8C15.5833 8.02778 15.5694 8.04167 15.5417 8.04167C14.5 8.04167 13.5208 8.23611 12.6042 8.625C11.7014 9.01389 10.9097 9.54861 10.2292 10.2292C9.54861 10.9236 9.01389 11.7292 8.625 12.6458C8.23611 13.5486 8.04167 14.5139 8.04167 15.5417C8.04167 15.5694 8.02778 15.5833 8 15.5833Z"
    fill="#fff" />
</svg>
