<svg xmlns="http://www.w3.org/2000/svg" width="41" height="39" fill="none">
  <path fill="#1A1A1A"
    d="M9.25 36.75h2.05l23.45-23.4-2.05-2.05L9.25 34.7v2.05ZM7 39v-5.25l28.1-28.1c.2-.167.433-.3.7-.4.3-.133.6-.2.9-.2.3 0 .583.067.85.2.267.1.517.233.75.4l2.05 2.05c.233.233.4.5.5.8.1.267.15.533.15.8 0 .3-.067.6-.2.9-.1.3-.25.55-.45.75L12.25 39H7ZM38.7 9.3l-1.95-1.95L38.7 9.3Zm-4.95 3-1.05-1 2.05 2.05-1-1.05ZM11 21.15c0-2.833-.983-5.233-2.95-7.2C6.083 11.983 3.683 11 .85 11c2.833 0 5.233-.983 7.2-2.95C10.017 6.083 11 3.683 11 .85c0 2.833.983 5.233 2.95 7.2 1.967 1.967 4.367 2.95 7.2 2.95-2.833 0-5.233.983-7.2 2.95-1.967 1.967-2.95 4.367-2.95 7.2Z" />
</svg>
