<svg width="27" height="29" viewBox="0 0 27 29" fill="none" xmlns="http://www.w3.org/2000/svg">
<path fill-rule="evenodd" clip-rule="evenodd" d="M16.8634 0.883911C15.007 -0.187866 12.7198 -0.187866 10.8634 0.883911L3.87305 4.9198C2.01664 5.99158 0.873047 7.97235 0.873047 10.116V18.1877C0.873047 19.2748 1.16716 20.3201 1.6992 21.2261H5.62706C5.90248 21.2261 6.12644 20.9944 6.12644 20.7095V16.545C6.12644 14.3756 7.83341 12.61 9.93081 12.61H10.4211C11.0829 10.8716 12.7203 9.63818 14.6331 9.63818C17.129 9.63818 19.1588 11.7377 19.1588 14.3193C19.1588 16.9008 17.129 19.0003 14.6331 19.0003C12.7203 19.0003 11.0829 17.7659 10.4211 16.0284H9.93081C9.6554 16.0284 9.43143 16.2601 9.43143 16.545V20.7095C9.43143 22.7416 7.93373 24.4194 6.02035 24.6237L10.8634 27.4198C12.7198 28.4916 15.007 28.4916 16.8634 27.4198L23.8538 23.3839C25.7102 22.3121 26.8538 20.3314 26.8538 18.1877V10.116C26.8538 7.97235 25.7102 5.99158 23.8538 4.9198L16.8634 0.883911ZM13.4124 14.3193C13.4124 15.0153 13.9602 15.5818 14.6331 15.5818C15.306 15.5818 15.8538 15.0153 15.8538 14.3193C15.8538 13.6232 15.306 13.0566 14.6331 13.0566C13.9602 13.0566 13.4124 13.6232 13.4124 14.3193Z" fill="#9A9A9A"/>
</svg>
