<svg width="17" height="24" viewBox="0 0 17 24" fill="none" xmlns="http://www.w3.org/2000/svg">
  <g clip-path="url(#clip0_4359_3477)">
    <path
      d="M16.9999 6.7389C16.9999 3.01692 14.0832 0 10.4847 0H0.699503C0.392017 0 0.143188 0.257371 0.143188 0.574774V11.811C0.143188 11.8748 0.147511 11.9374 0.154302 12C0.147511 12.0619 0.143188 12.1245 0.143188 12.189V23.4252C0.143188 23.7426 0.392017 24 0.698885 24H10.4847C14.0832 24 16.9999 20.9831 16.9999 17.2611C16.9999 15.4736 16.3263 13.8501 15.2285 12.6437C14.8982 12.281 14.8982 11.7184 15.2285 11.355C16.3263 10.1492 16.9999 8.52517 16.9999 6.73827V6.7389Z"
      fill="white" />
    <path
      d="M9.15294 6.85767C7.98228 6.85767 6.98017 7.61254 6.57513 8.67651H6.27505C4.99139 8.67651 3.94668 9.75708 3.94668 11.0848V13.6336C3.94668 13.808 3.80961 13.9497 3.64105 13.9497H0V16.0419H3.64105C4.92471 16.0419 5.96942 14.9613 5.96942 13.6336V11.0848C5.96942 10.9105 6.10649 10.7687 6.27505 10.7687H6.57513C6.98017 11.832 7.98228 12.5875 9.15294 12.5875C10.6805 12.5875 11.9228 11.3026 11.9228 9.72259C11.9228 8.14261 10.6805 6.85767 9.15294 6.85767ZM9.15294 10.4953C8.74111 10.4953 8.40584 10.1486 8.40584 9.72259C8.40584 9.29662 8.74111 8.94984 9.15294 8.94984C9.56478 8.94984 9.90005 9.29662 9.90005 9.72259C9.90005 10.1486 9.56478 10.4953 9.15294 10.4953Z"
      fill="#246DB5" />
  </g>
  <defs>
    <clipPath id="clip0_4359_3477">
      <rect width="17" height="24" fill="white" />
    </clipPath>
  </defs>
</svg>
