<svg xmlns="http://www.w3.org/2000/svg" width="721" height="153" fill="none">
  <path fill="#BAB7CD"
    d="M718 5.5a2.5 2.5 0 1 0 0-5v5ZM0 150c0 2.5.002 2.5.007 2.5H619v-5H.007c-.005 0-.007 0-.007 2.5Zm619 2.5c6.648 0 11.788-1.947 15.696-4.978 3.873-3.003 6.394-6.959 8.038-10.785 1.645-3.826 2.455-7.618 2.858-10.429.202-1.412.304-2.594.355-3.43a30.733 30.733 0 0 0 .052-1.262l.001-.078V121.502c0-.001 0-.002-2.5-.002s-2.5-.001-2.5-.002v-.001s0-.001 0 0v.007l-.001.043a24.867 24.867 0 0 1-.042 1.024 37.599 37.599 0 0 1-.315 3.028c-.362 2.532-1.083 5.865-2.501 9.164-1.418 3.299-3.491 6.468-6.509 8.808-2.982 2.313-7.03 3.929-12.632 3.929v5Zm27-31v-95h-5v95h5Zm-2.5-95c2.5 0 2.5.001 2.5.002v.004-.033l.004-.154c.005-.142.015-.363.036-.65.041-.577.124-1.416.293-2.43.34-2.04 1.015-4.72 2.341-7.371 1.32-2.64 3.261-5.206 6.127-7.116 2.85-1.9 6.761-3.252 12.199-3.252v-5c-6.312 0-11.213 1.585-14.973 4.092-3.744 2.496-6.209 5.806-7.826 9.04-1.612 3.224-2.405 6.418-2.8 8.785a31.544 31.544 0 0 0-.349 2.895 23.717 23.717 0 0 0-.051 1.08l-.001.071v.034c0 .002 0 .003 2.5.003Zm23.5-21H718v-5h-1.228A6522440.085 6522440.085 0 0 1 667 .5v5Z" />
</svg>
