<svg xmlns="http://www.w3.org/2000/svg" width="719" height="155" fill="none">
  <path fill="#8F88BA"
    d="M720 8a4 4 0 0 0 0-8v8ZM-14 151c0 4 .002 4 .007 4H621v-8H-13.993c-.005 0-.007 0-.007 4Zm635 4c6.962 0 12.429-2.046 16.615-5.292 4.13-3.203 6.785-7.394 8.497-11.378 1.713-3.985 2.55-7.914 2.965-10.81a44.59 44.59 0 0 0 .368-3.55 33.459 33.459 0 0 0 .054-1.333l.001-.089v-.044c0-.002 0-.004-4-.004s-4-.002-4-.003v-.005.034l-.004.18c-.005.168-.015.43-.036.773a36.794 36.794 0 0 1-.302 2.907c-.351 2.448-1.046 5.644-2.395 8.784-1.35 3.141-3.289 6.075-6.05 8.216C630.008 145.483 626.288 147 621 147v8Zm28.5-32.5v-95h-8v95h8Zm-4-95c4 0 4 .002 4 .004v.011-.018c.001-.022.001-.065.004-.128.004-.125.013-.326.032-.594a24.8 24.8 0 0 1 .277-2.29c.323-1.94.963-4.468 2.202-6.946 1.232-2.463 3.016-4.804 5.618-6.539 2.577-1.718 6.192-3 11.367-3V0c-6.575 0-11.772 1.655-15.805 4.344-4.007 2.671-6.629 6.205-8.335 9.617-1.698 3.397-2.528 6.744-2.938 9.21a33.042 33.042 0 0 0-.366 3.034 22.732 22.732 0 0 0-.055 1.163l-.001.083v.045c0 .002 0 .004 4 .004ZM669 8H720V0h-.005a101974.914 101974.914 0 0 1-16.683 0H669v8Z" />
</svg>
