<svg xmlns="http://www.w3.org/2000/svg" width="20" height="20" fill="none">
  <g clip-path="url(#a)">
    <path fill="#fff"
      d="m15.896 16.646-4.98-4.959c-.416.32-.874.57-1.374.75-.486.167-.993.25-1.521.25-1.306 0-2.417-.45-3.334-1.354C3.785 10.417 3.333 9.306 3.333 8c0-1.292.452-2.396 1.354-3.313.917-.916 2.028-1.375 3.334-1.375a4.454 4.454 0 0 1 1.708.334l-.875.854a1.82 1.82 0 0 0-.396-.083 4.4 4.4 0 0 0-.437-.021c-1.014 0-1.868.354-2.563 1.062C4.764 6.153 4.417 7 4.417 8c0 1 .347 1.854 1.041 2.563.695.694 1.549 1.041 2.563 1.041.805 0 1.514-.222 2.125-.666a3.497 3.497 0 0 0 1.291-1.771h1.126c-.084.32-.202.625-.355.916-.152.292-.32.57-.5.834l4.959 4.958-.771.77ZM14.5 9.792c0-1.195-.417-2.209-1.25-3.042-.833-.833-1.847-1.25-3.042-1.25 1.195 0 2.209-.417 3.042-1.25.833-.833 1.25-1.847 1.25-3.042 0 1.195.417 2.209 1.25 3.042.833.833 1.847 1.25 3.042 1.25-1.195 0-2.209.417-3.042 1.25-.833.833-1.25 1.847-1.25 3.042Z" />
  </g>
  <defs>
    <clipPath id="a">
      <path fill="#fff" d="M0 0h20v20H0z" />
    </clipPath>
  </defs>
</svg>
