<svg xmlns="http://www.w3.org/2000/svg" width="20" height="20" fill="none">
  <g clip-path="url(#a)">
    <path fill="#fff"
      d="M5.917 9.792c0-1.195-.417-2.209-1.25-3.042-.834-.833-1.848-1.25-3.042-1.25 1.194 0 2.208-.417 3.042-1.25.833-.833 1.25-1.847 1.25-3.042 0 1.195.416 2.209 1.25 3.042C8 5.083 9.014 5.5 10.208 5.5 9.014 5.5 8 5.917 7.167 6.75c-.834.833-1.25 1.847-1.25 3.042Zm-.959 5.791c-.36 0-.673-.132-.937-.396a1.281 1.281 0 0 1-.396-.937v-4.146H4.708v4.146c0 .07.021.132.063.188a.305.305 0 0 0 .187.062h8.48c.083 0 .145-.02.187-.063a.259.259 0 0 0 .083-.187v-8.5a.198.198 0 0 0-.083-.167c-.042-.055-.104-.083-.188-.083h-1.916V4.417h1.916c.39 0 .709.132.959.396.264.25.396.562.396.937v3.563l2.583-2.584v6.542l-2.583-2.584v3.563c0 .361-.132.674-.396.938a1.305 1.305 0 0 1-.959.395H4.959Z" />
  </g>
  <defs>
    <clipPath id="a">
      <path fill="#fff" d="M0 0h20v20H0z" />
    </clipPath>
  </defs>
</svg>
