<?xml version="1.0" encoding="iso-8859-1"?>
<!-- Generator: Adobe Illustrator 27.9.0, SVG Export Plug-In . SVG Version: 6.00 Build 0)  -->
<svg version="1.1" id="Layer_1" xmlns="http://www.w3.org/2000/svg" xmlns:xlink="http://www.w3.org/1999/xlink" x="0px" y="0px"
	 viewBox="0 0 534 534" style="enable-background:new 0 0 534 534;" xml:space="preserve">
<g>
	<path style="fill:#F4AF3E;" d="M35.972,115.988c8.961-10.985,20.449-19.028,32.039-26.8c43.806-29.376,92.115-47.363,143.962-56.28
		c28.329-4.872,56.866-6.762,85.549-5.537c51.715,2.21,100.634,14.523,145.242,41.626c23.984,14.572,45.143,32.423,62.438,54.654
		c1.316,1.692,2.376,3.582,3.555,5.38c-8.63,4.707-17.883,8.022-26.867,11.928c-47.195,20.515-94.396,41.036-142.353,59.715
		c-20.547,8.003-15.036,7.842-28.875-5.741c-18.457-18.116-39.304-32.835-61.946-45.175c-34.714-18.92-71.332-32.94-109.693-42.32
		c-21.484-5.253-43.323-7.184-65.354-4.075c-11.458,1.617-22.407,5.012-32.316,11.27C39.762,115.637,38.225,117.388,35.972,115.988z
		"/>
	<path style="fill:#DF7F14;" d="M481.831,280.995c1.742,30.577,2.752,61.18,3.127,91.801c0.069,5.656,1.284,11.229,0.697,16.934
		c-1.214,11.81-7.742,20.322-16.654,27.346c-14.322,11.288-30.371,19.781-46.465,28.135c-39.396,20.45-78.611,41.287-119.205,59.311
		c-11.875,5.272-24.234,9.325-37.668,7.557c-6.766-0.89-12.626-4.08-18.57-7.014c-56.852-28.056-113.4-56.66-165.41-93.298
		c-5.988-4.218-11.792-8.698-17.788-12.905c-7.843-5.503-11.261-13.233-11.942-22.518c-1.392-18.974,0.339-37.928,0.321-56.894
		c-0.013-13.141,0.654-26.283,1.017-39.424c1.229-0.426,2.34-0.015,3.261,0.706c4.074,3.187,8.639,5.529,13.214,7.868
		c1.337,0.683,2.569,1.543,3.024,3.125c-0.754,12.806,0.296,25.661-0.574,38.422c-0.807,11.835-0.595,23.56,0.044,35.365
		c0.309,5.699,2.108,10.214,5.969,14.296c9.713,10.268,21.294,18.105,33.091,25.625c18.399,11.729,37.148,22.925,56.584,32.824
		c19.279,9.819,39.03,18.705,58.865,27.374c8.238,3.6,16.44,7.282,24.639,10.973c6.838,3.077,10.699,1.082,12.516-6.224
		c0.692-2.781,0.691-5.608,0.691-8.44c0-31.475-0.014-62.95,0.023-94.425c0.003-2.618-0.515-5.363,1.143-7.762
		c2.643-1.705,5.748-1.344,8.629-1.677c4.794-0.554,9.295-2.135,13.929-3.227c6.249-0.069,12.14-1.9,17.974-3.857
		c32.534-10.912,64.091-24.335,95.735-37.519c25.038-10.432,50.038-20.956,75.041-31.472
		C478.591,281.366,480.049,280.37,481.831,280.995z"/>
	<path style="fill:#33200A;" d="M288.847,355.851c-7.353,3.093-15.088,4.11-22.988,4.235c-1.453,1.272-3.109,0.803-4.756,0.586
		c-46.953-6.194-82.384-44.215-85.507-91.596c-0.483-7.331-1.901-14.528-5.563-21.083c-0.896-1.604-1.784-3.191-3.128-4.481
		c-6.627-6.357-13.283-5.139-17.072,3.193c-2.582,5.677-3.129,11.885-4.5,17.877c-2.122,9.267-5.995,17.585-12.877,24.366
		c-6.072,5.983-13.476,9.266-21.754,10.161c-11.409,1.233-22.588-0.271-33.316-4.527c-1.995-0.791-4.132-1.405-5.4-3.379
		c-6.635-3.051-12.768-6.941-18.694-11.178c-21.246-19.262-27.035-44.519-27.82-71.719c-0.096-3.322-0.036-6.665-0.41-9.958
		c-0.456-4.026-1.503-7.836-5.606-9.945c-2.842-1.461-4.299-3.879-4.823-7.117c-1.146-7.084-2.066-14.162-1.114-21.33
		c0.223-1.678-0.096-3.859,2.367-4.431c5.131-1.447,9.645,0.64,14.196,2.491c1.98,0.806,4.033,1.395,6.058,2.067
		c14.67,5.493,29.645,10.059,44.63,14.58c21.887,6.604,42.733,15.949,64.077,23.982c28.432,10.701,58.218,16.806,87.387,25.011
		c26.652,7.497,52.826,16.304,77.847,28.285c1.06,0.446,2.186,0.789,3.164,1.371c10.094,6.013,20.281,5.585,30.555,0.524
		c30.719-10.567,60.708-23.07,91.188-34.266c14.442-5.305,29.01-7.15,43.948-1.806c9.015,3.225,15.36,9.733,21.511,16.575
		c0.816,0.908,1.105,2.032,1.002,3.25c2.634,3.813,5.79,7.426,5.389,12.516c-0.361,4.579-2.009,8.499-6.632,10.239
		c-4.232,1.593-6.846-1.218-9.388-3.956c-0.559-0.602-1.185-1.141-1.78-1.709c-2.142-0.193-3.568-1.71-5.164-2.864
		c-14.125-10.211-29.146-12.367-45.142-4.896c-22.607,10.559-45.235,21.066-68.224,30.775c-9.813,4.145-19.693,8.109-29.865,11.312
		c-4.422,1.61-9.147,1.069-13.674,1.939c-5.659,1.087-6.835,2.287-7.485,8.075c-0.699,6.233-1.536,12.434-3.349,18.461
		c-2.921,10.433-6.418,20.597-13.663,28.997C298.747,350.797,294.724,354.668,288.847,355.851z"/>
	<path style="fill:#DF7F14;" d="M35.904,161.098c-6.812-1.391-12.932-5.272-20.033-5.572c1.798-0.464,1.921-1.842,2.125-3.391
		c1.854-14.094,7.981-26.089,17.976-36.147c4.102-1.079,7.047-4.234,10.83-5.964c12.087-5.528,24.71-8.341,37.972-9.089
		c36.299-2.047,70.143,8.137,103.636,20.262c16.113,5.833,31.874,12.514,47.21,20.147c31.033,15.445,59.532,34.465,83.204,60.098
		c2.721,2.947,5.08,3.702,9.048,2.26c23.904-8.688,47.297-18.63,70.697-28.545c35.185-14.908,70.267-30.061,105.376-45.148
		c1.574-0.676,3.105-1.158,4.813-0.977c6.675,10.012,8.479,21.361,9.072,33.043c-0.763,1.912-2.505,2.541-4.207,3.254
		c-26.73,11.197-53.558,22.175-79.991,34.057c-28.254,12.701-56.785,24.774-84.925,37.727c-6.175,2.842-6.059,2.997-4.908,9.852
		c0.436,2.597,1.12,5.231,0.078,7.859c-8.782,4.672-17.71,6.35-27.028,1.462c-2.177-1.142-4.475-2.052-6.717-3.069
		c-2.823-4.176-3.944-9.125-6.196-13.581c-6.88-13.618-16.679-24.901-27.937-34.911c-32.699-29.076-71.511-47.244-112.075-62.207
		c-18.01-6.643-36.356-12.125-55.268-15.503c-16.682-2.98-33.387-4.433-49.799,1.593c-13.001,4.773-20.29,14.015-21.551,27.89
		C37.155,158.125,37.424,159.886,35.904,161.098z"/>
	<path style="fill:#AB5811;" d="M341,287.978c15.178-5.784,30.297-11.713,45.083-18.451c17.833-8.127,35.614-16.37,53.49-24.399
		c16.975-7.624,36.237-3.812,49.464,9.551c-6.579,4.298-9.182,10.109-7.389,17.972c0.606,2.657,0.152,5.556,0.183,8.344
		c-14.858,7.007-30.188,12.906-45.291,19.338c-32.657,13.909-65.363,27.702-98.452,40.551
		c-13.899,5.397-27.763,10.986-42.359,14.412c-2.325,0.546-4.555,0.776-6.883,0.555c13.989-7.745,20.913-20.509,25.062-35.252
		c0.26-0.924,0.659-1.81,0.994-2.713c9.498-6.393,17.567-14.095,22.635-24.578C338.461,291.397,338.903,289.139,341,287.978z"/>
	<path style="fill:#AB5811;" d="M343.875,254.825c-0.877-4.537-1.807-9.064-2.61-13.614c-0.465-2.633,1.977-2.826,3.463-3.507
		c14.203-6.509,28.419-12.994,42.7-19.331c18.527-8.221,37.069-16.412,55.692-24.411c23.656-10.161,47.402-20.114,71.104-30.167
		c1.224-0.519,2.404-1.144,3.605-1.719c1.249,26.629-2.786,52.113-16.376,75.52c-15.529-21.365-39.031-27.179-66.193-16.736
		c-28.503,10.959-57.11,21.645-85.682,32.426C347.737,253.979,345.954,254.977,343.875,254.825z"/>
	<path style="fill:#FEEAC9;" d="M71.985,291.203c10.304,3.798,20.653,7.128,31.881,7.012c19.723-0.204,33.569-10.355,38.967-29.372
		c1.719-6.057,2.496-12.38,4.203-18.441c1.588-5.638,3.596-11.785,10.677-12.249c7.005-0.459,11.175,4.359,14.137,10.12
		c4.455,8.664,4.603,18.276,5.918,27.639c5.918,42.143,35.154,73.407,76.8,82.17c3.738,0.787,7.525,1.342,11.289,2.004
		c-0.069,35.142-0.134,70.283-0.218,105.425c-0.004,1.491-0.065,2.999-0.292,4.47c-1.404,9.082-5.969,11.628-14.313,7.909
		c-24.912-11.104-50.025-21.78-74.45-33.935c-31.029-15.442-61.033-32.64-88.821-53.474c-3.579-2.683-6.799-5.872-10.024-8.994
		c-4.619-4.473-6.695-9.823-6.979-16.46c-0.982-22.981,0.609-45.918,0.618-68.875C71.382,294.502,71.775,292.853,71.985,291.203z"/>
	<path style="fill:#FEEAC9;" d="M35.904,161.098c-0.421-24.109,16.007-34.823,36.715-37.084c22.795-2.488,44.67,2.512,66.23,8.965
		c41.616,12.455,81.314,29.214,117.138,54.196c17.439,12.161,33.221,26.135,44.777,44.257c4.279,6.71,8.304,13.639,9.363,21.785
		c-18.003-7.677-35.989-15.33-54.703-21.267c-28.497-9.041-57.659-15.591-86.363-23.846c-20.955-6.026-40.694-15.203-61.108-22.591
		c-23.077-8.351-46.548-15.614-69.842-23.367C37.344,161.891,36.638,161.452,35.904,161.098z"/>
	<path style="fill:#886024;" d="M201.087,264.335c-0.144-12.513,4.381-20.178,13.623-22.704c6.321-1.728,12.239-0.965,16.829,4.33
		c5.003,5.771,2.892,12.777-4.55,14.167c-6.193,1.157-8.943,4.784-10.094,10.623c-0.72,3.654-0.575,8.439-6.444,8.372
		c-4.514-0.051-8.538-3.688-9.316-8.812C200.839,268.362,201.087,266.33,201.087,264.335z"/>
	<path style="fill:#886024;" d="M41.881,209.56c-0.417-5.118,0.378-9.954,3.032-14.43c3.112-5.249,7.815-6.711,13.619-6.29
		c4.451,0.323,7.538,2.347,9.487,6.22c2.585,5.137,0.797,10.374-4.614,11.485c-6.078,1.249-7.558,5.548-8.204,10.431
		c-0.456,3.447-0.448,7.252-4.561,7.788c-4.57,0.596-6.585-3.114-8.1-6.806C41.423,215.236,42.157,212.348,41.881,209.56z"/>
	<path style="fill:#DF7E14;" d="M341,287.978c-4.064,13.431-14.082,22.163-24.267,30.768c-1.321,1.116-1.606,0.247-1.83-0.859
		c1.325-6.819,2.924-13.593,3.41-20.551c0.344-4.929,2.886-7.367,7.915-7.676C331.168,289.355,336.077,288.558,341,287.978z"/>
	<path style="fill:#422B0D;" d="M182.334,388.869c-35.61-0.153-65.806-19.266-77.922-48.657c-1.52-3.688-2.862-7.472-1.724-11.606
		c1.307-4.746,4.74-6.307,9.135-4.028c1.174,0.609,2.265,1.403,3.327,2.201c28.216,21.224,60.832,28.938,95.275,31.048
		c0.997,0.061,2,0.035,2.993,0.122c4.412,0.385,9.008,1.044,10.992,5.547c2.126,4.827-0.296,9.078-3.362,12.791
		c-4.341,5.257-10.516,7.465-16.724,9.369C196.804,387.963,188.995,388.594,182.334,388.869z"/>
</g>
</svg>
