<svg xmlns="http://www.w3.org/2000/svg" width="20" height="20" fill="none">
  <path fill="#1A1A1A"
    d="M1.458 16.438 5.48 5.688h1.417l4.042 10.75H9.52l-1.063-2.959H3.917l-1.042 2.959H1.458Zm2.917-4.125h3.688L6.27 7.207h-.083l-1.813 5.104Zm10.458 4.374c-.764 0-1.402-.222-1.916-.666-.514-.459-.771-1.063-.771-1.813 0-.764.291-1.375.875-1.833.583-.458 1.333-.688 2.25-.688.416 0 .812.042 1.187.126.375.069.68.173.917.312v-.48c0-.569-.18-1.034-.542-1.395-.36-.361-.854-.542-1.479-.542-.403 0-.77.077-1.104.23-.32.138-.625.354-.917.645l-.854-.75a3.589 3.589 0 0 1 1.271-.916 4.03 4.03 0 0 1 1.604-.313c1.056 0 1.861.271 2.417.813.57.541.854 1.305.854 2.291v4.75h-1.25v-1.125h-.063c-.319.459-.68.799-1.083 1.021-.389.222-.854.334-1.396.334Zm.209-1.104c.68 0 1.236-.236 1.666-.708.445-.472.667-1.049.667-1.73a2.568 2.568 0 0 0-.938-.353c-.319-.07-.66-.104-1.02-.104-.556 0-1.035.145-1.438.437a1.313 1.313 0 0 0-.583 1.125c0 .389.153.708.458.958.306.25.702.375 1.188.375Zm.416-7.729c0-.917-.326-1.694-.979-2.333a3.142 3.142 0 0 0-2.333-.98c.916 0 1.694-.319 2.333-.958.653-.652.98-1.444.98-2.375 0 .93.319 1.723.958 2.375.652.64 1.444.959 2.375.959-.93 0-1.723.326-2.375.979-.64.639-.959 1.417-.959 2.333Z" />
</svg>
