<svg xmlns="http://www.w3.org/2000/svg" width="17" height="16" fill="none">
  <path fill="#fff"
    d="M4.5 14.5h.917l8.208-8.188-.938-.937L4.5 13.583v.917Zm-1.083 1.083v-2.458L13.792 2.729a.76.76 0 0 1 .333-.229c.139-.056.278-.083.417-.083.152 0 .291.027.416.083.125.042.25.118.375.23l.938.916c.11.125.187.257.229.396.056.125.083.25.083.375 0 .152-.027.298-.083.437a.748.748 0 0 1-.23.354L5.876 15.583H3.417ZM15.5 4.437l-.938-.937.938.938Zm-2.354 1.417-.459-.479.938.938-.48-.459ZM4.5 8.792c0-1.195-.417-2.209-1.25-3.042C2.417 4.917 1.403 4.5.208 4.5c1.195 0 2.209-.417 3.042-1.25C4.083 2.417 4.5 1.403 4.5.208c0 1.195.417 2.209 1.25 3.042.833.833 1.847 1.25 3.042 1.25-1.195 0-2.209.417-3.042 1.25-.833.833-1.25 1.847-1.25 3.042Z" />
</svg>
